<mxfile host="app.diagrams.net" modified="2020-09-16T13:05:44.486Z" agent="5.0 (Windows NT 10.0; WOW64) AppleWebKit/537.36 (KHTML, like Gecko) Chrome/81.0.4044.138 Safari/537.36" etag="bRkwq6hGvCjkVEiftQzF" version="13.6.9" type="github">
  <diagram id="Np4Y9l7Cu0FXIEOhbT4F" name="Page-1">
    <mxGraphModel dx="1422" dy="772" grid="1" gridSize="10" guides="1" tooltips="1" connect="1" arrows="1" fold="1" page="1" pageScale="1" pageWidth="1200" pageHeight="1920" math="0" shadow="0">
      <root>
        <mxCell id="0" />
        <mxCell id="1" parent="0" />
        <mxCell id="WDI8N6Us3rYaBqZzMLqW-21" value="" style="rounded=1;arcSize=9;align=left;spacingLeft=5;strokeColor=#4C9AFF;html=1;strokeWidth=2;fontSize=12" vertex="1" parent="1">
          <mxGeometry x="600" y="109" width="390" height="495" as="geometry" />
        </mxCell>
        <mxCell id="WDI8N6Us3rYaBqZzMLqW-23" value="" style="rounded=1;arcSize=9;align=left;spacingLeft=5;strokeColor=#4C9AFF;html=1;strokeWidth=2;fontSize=12" vertex="1" parent="1">
          <mxGeometry x="96" y="109" width="390" height="495" as="geometry" />
        </mxCell>
        <mxCell id="WDI8N6Us3rYaBqZzMLqW-92" value="" style="edgeStyle=orthogonalEdgeStyle;rounded=0;jumpStyle=none;orthogonalLoop=1;jettySize=auto;html=1;fontColor=#000033;fillColor=#ffe6cc;strokeColor=#d79b00;" edge="1" parent="1" source="WDI8N6Us3rYaBqZzMLqW-8" target="WDI8N6Us3rYaBqZzMLqW-91">
          <mxGeometry relative="1" as="geometry" />
        </mxCell>
        <mxCell id="WDI8N6Us3rYaBqZzMLqW-93" value="&lt;b&gt;同步写入&lt;/b&gt;" style="edgeLabel;html=1;align=center;verticalAlign=middle;resizable=0;points=[];fontColor=#000033;" vertex="1" connectable="0" parent="WDI8N6Us3rYaBqZzMLqW-92">
          <mxGeometry x="-0.2154" y="1" relative="1" as="geometry">
            <mxPoint x="9" as="offset" />
          </mxGeometry>
        </mxCell>
        <mxCell id="WDI8N6Us3rYaBqZzMLqW-8" value="&lt;font color=&quot;#ffffff&quot;&gt;写接口1&lt;/font&gt;" style="shape=step;perimeter=stepPerimeter;whiteSpace=wrap;html=1;fixedSize=1;size=10;direction=south;fillColor=#10739E;strokeColor=none;rounded=0;fontStyle=1" vertex="1" parent="1">
          <mxGeometry x="706" y="159" width="70" height="80" as="geometry" />
        </mxCell>
        <mxCell id="WDI8N6Us3rYaBqZzMLqW-95" value="" style="edgeStyle=orthogonalEdgeStyle;rounded=0;jumpStyle=none;orthogonalLoop=1;jettySize=auto;html=1;fontColor=#FFFFFF;fillColor=#ffe6cc;strokeColor=#d79b00;" edge="1" parent="1" source="WDI8N6Us3rYaBqZzMLqW-9" target="WDI8N6Us3rYaBqZzMLqW-94">
          <mxGeometry relative="1" as="geometry" />
        </mxCell>
        <mxCell id="WDI8N6Us3rYaBqZzMLqW-104" value="&lt;b&gt;&lt;font color=&quot;#000033&quot;&gt;异步写入&lt;/font&gt;&lt;/b&gt;" style="edgeLabel;html=1;align=center;verticalAlign=middle;resizable=0;points=[];fontColor=#FFFFFF;" vertex="1" connectable="0" parent="WDI8N6Us3rYaBqZzMLqW-95">
          <mxGeometry x="-0.1538" y="2" relative="1" as="geometry">
            <mxPoint x="7" y="1" as="offset" />
          </mxGeometry>
        </mxCell>
        <mxCell id="WDI8N6Us3rYaBqZzMLqW-9" value="&lt;span style=&quot;color: rgb(255 , 255 , 255)&quot;&gt;写接口2&lt;/span&gt;" style="shape=step;perimeter=stepPerimeter;whiteSpace=wrap;html=1;fixedSize=1;size=10;direction=south;fillColor=#F2931E;strokeColor=none;rounded=0;fontStyle=1" vertex="1" parent="1">
          <mxGeometry x="706" y="239" width="70" height="80" as="geometry" />
        </mxCell>
        <mxCell id="WDI8N6Us3rYaBqZzMLqW-10" value="&lt;b&gt;...&lt;/b&gt;" style="shape=step;perimeter=stepPerimeter;whiteSpace=wrap;html=1;fixedSize=1;size=10;direction=south;fillColor=#AE4132;strokeColor=none;rounded=0;fontColor=#FFFFFF;" vertex="1" parent="1">
          <mxGeometry x="706" y="319" width="70" height="80" as="geometry" />
        </mxCell>
        <mxCell id="WDI8N6Us3rYaBqZzMLqW-100" value="" style="edgeStyle=orthogonalEdgeStyle;rounded=0;jumpStyle=none;orthogonalLoop=1;jettySize=auto;html=1;fontColor=#FFFFFF;fillColor=#ffe6cc;strokeColor=#d79b00;entryX=0.5;entryY=0;entryDx=0;entryDy=0;exitX=0;exitY=0.5;exitDx=0;exitDy=0;" edge="1" parent="1" source="WDI8N6Us3rYaBqZzMLqW-99" target="WDI8N6Us3rYaBqZzMLqW-11">
          <mxGeometry relative="1" as="geometry" />
        </mxCell>
        <mxCell id="WDI8N6Us3rYaBqZzMLqW-101" value="&lt;b&gt;&lt;font color=&quot;#000033&quot;&gt;同步读取&lt;/font&gt;&lt;/b&gt;" style="edgeLabel;html=1;align=center;verticalAlign=middle;resizable=0;points=[];fontColor=#FFFFFF;" vertex="1" connectable="0" parent="WDI8N6Us3rYaBqZzMLqW-100">
          <mxGeometry x="-0.2615" relative="1" as="geometry">
            <mxPoint x="-15" y="-1" as="offset" />
          </mxGeometry>
        </mxCell>
        <mxCell id="WDI8N6Us3rYaBqZzMLqW-11" value="&lt;span style=&quot;color: rgb(255 , 255 , 255)&quot;&gt;读接口1&lt;/span&gt;" style="shape=step;perimeter=stepPerimeter;whiteSpace=wrap;html=1;fixedSize=1;size=10;direction=south;fillColor=#23445D;strokeColor=none;rounded=0;fontStyle=1" vertex="1" parent="1">
          <mxGeometry x="706" y="399" width="70" height="80" as="geometry" />
        </mxCell>
        <mxCell id="WDI8N6Us3rYaBqZzMLqW-103" value="" style="edgeStyle=orthogonalEdgeStyle;rounded=0;jumpStyle=none;orthogonalLoop=1;jettySize=auto;html=1;fontColor=#FFFFFF;fillColor=#ffe6cc;strokeColor=#d79b00;exitX=0;exitY=0.5;exitDx=0;exitDy=0;" edge="1" parent="1" source="WDI8N6Us3rYaBqZzMLqW-102" target="WDI8N6Us3rYaBqZzMLqW-12">
          <mxGeometry relative="1" as="geometry" />
        </mxCell>
        <mxCell id="WDI8N6Us3rYaBqZzMLqW-12" value="&lt;span style=&quot;color: rgb(255 , 255 , 255)&quot;&gt;读接口2&lt;/span&gt;" style="shape=step;perimeter=stepPerimeter;whiteSpace=wrap;html=1;fixedSize=1;size=10;direction=south;fillColor=#12AAB5;strokeColor=none;rounded=0;fontStyle=1" vertex="1" parent="1">
          <mxGeometry x="706" y="479" width="70" height="80" as="geometry" />
        </mxCell>
        <mxCell id="WDI8N6Us3rYaBqZzMLqW-47" style="edgeStyle=orthogonalEdgeStyle;rounded=0;orthogonalLoop=1;jettySize=auto;html=1;fontColor=#000033;fillColor=#ffe6cc;strokeColor=#d79b00;" edge="1" parent="1" target="WDI8N6Us3rYaBqZzMLqW-24">
          <mxGeometry relative="1" as="geometry">
            <mxPoint x="640" y="199" as="sourcePoint" />
          </mxGeometry>
        </mxCell>
        <mxCell id="WDI8N6Us3rYaBqZzMLqW-48" value="异步写入" style="edgeLabel;html=1;align=center;verticalAlign=middle;resizable=0;points=[];fontStyle=1;fontColor=#000033;" vertex="1" connectable="0" parent="WDI8N6Us3rYaBqZzMLqW-47">
          <mxGeometry x="-0.23" y="-1" relative="1" as="geometry">
            <mxPoint x="-14" as="offset" />
          </mxGeometry>
        </mxCell>
        <mxCell id="WDI8N6Us3rYaBqZzMLqW-49" style="edgeStyle=orthogonalEdgeStyle;rounded=0;orthogonalLoop=1;jettySize=auto;html=1;fontColor=#000033;fillColor=#ffe6cc;strokeColor=#d79b00;" edge="1" parent="1" target="WDI8N6Us3rYaBqZzMLqW-25">
          <mxGeometry relative="1" as="geometry">
            <mxPoint x="640" y="279" as="sourcePoint" />
          </mxGeometry>
        </mxCell>
        <mxCell id="WDI8N6Us3rYaBqZzMLqW-50" value="同步写入" style="edgeLabel;html=1;align=center;verticalAlign=middle;resizable=0;points=[];fontColor=#000033;fontStyle=1" vertex="1" connectable="0" parent="WDI8N6Us3rYaBqZzMLqW-49">
          <mxGeometry x="-0.17" y="1" relative="1" as="geometry">
            <mxPoint x="-8" y="-2" as="offset" />
          </mxGeometry>
        </mxCell>
        <mxCell id="WDI8N6Us3rYaBqZzMLqW-68" value="" style="edgeStyle=orthogonalEdgeStyle;rounded=0;orthogonalLoop=1;jettySize=auto;html=1;fontColor=#000033;fillColor=#ffe6cc;strokeColor=#d79b00;" edge="1" parent="1" source="WDI8N6Us3rYaBqZzMLqW-24" target="WDI8N6Us3rYaBqZzMLqW-67">
          <mxGeometry relative="1" as="geometry" />
        </mxCell>
        <mxCell id="WDI8N6Us3rYaBqZzMLqW-24" value="&lt;font color=&quot;#ffffff&quot;&gt;写接口1&lt;/font&gt;" style="shape=step;perimeter=stepPerimeter;whiteSpace=wrap;html=1;fixedSize=1;size=10;direction=south;fillColor=#10739E;strokeColor=none;rounded=0;fontStyle=1" vertex="1" parent="1">
          <mxGeometry x="356" y="159" width="70" height="80" as="geometry" />
        </mxCell>
        <mxCell id="WDI8N6Us3rYaBqZzMLqW-70" value="" style="edgeStyle=orthogonalEdgeStyle;rounded=0;orthogonalLoop=1;jettySize=auto;html=1;fontColor=#FFFFFF;fillColor=#ffe6cc;strokeColor=#d79b00;" edge="1" parent="1" source="WDI8N6Us3rYaBqZzMLqW-25" target="WDI8N6Us3rYaBqZzMLqW-69">
          <mxGeometry relative="1" as="geometry" />
        </mxCell>
        <mxCell id="WDI8N6Us3rYaBqZzMLqW-25" value="&lt;span style=&quot;color: rgb(255 , 255 , 255)&quot;&gt;写接口2&lt;/span&gt;" style="shape=step;perimeter=stepPerimeter;whiteSpace=wrap;html=1;fixedSize=1;size=10;direction=south;fillColor=#F2931E;strokeColor=none;rounded=0;fontStyle=1" vertex="1" parent="1">
          <mxGeometry x="356" y="239" width="70" height="80" as="geometry" />
        </mxCell>
        <mxCell id="WDI8N6Us3rYaBqZzMLqW-26" value="&lt;b&gt;...&lt;/b&gt;" style="shape=step;perimeter=stepPerimeter;whiteSpace=wrap;html=1;fixedSize=1;size=10;direction=south;fillColor=#AE4132;strokeColor=none;rounded=0;fontColor=#FFFFFF;" vertex="1" parent="1">
          <mxGeometry x="356" y="319" width="70" height="80" as="geometry" />
        </mxCell>
        <mxCell id="WDI8N6Us3rYaBqZzMLqW-27" value="&lt;span style=&quot;color: rgb(255 , 255 , 255)&quot;&gt;读接口1&lt;/span&gt;" style="shape=step;perimeter=stepPerimeter;whiteSpace=wrap;html=1;fixedSize=1;size=10;direction=south;fillColor=#23445D;strokeColor=none;rounded=0;fontStyle=1" vertex="1" parent="1">
          <mxGeometry x="356" y="399" width="70" height="80" as="geometry" />
        </mxCell>
        <mxCell id="WDI8N6Us3rYaBqZzMLqW-76" value="" style="edgeStyle=orthogonalEdgeStyle;rounded=0;orthogonalLoop=1;jettySize=auto;html=1;fontColor=#FFFFFF;fillColor=#ffe6cc;strokeColor=#d79b00;" edge="1" parent="1" source="WDI8N6Us3rYaBqZzMLqW-75" target="WDI8N6Us3rYaBqZzMLqW-28">
          <mxGeometry relative="1" as="geometry" />
        </mxCell>
        <mxCell id="WDI8N6Us3rYaBqZzMLqW-28" value="&lt;span style=&quot;color: rgb(255 , 255 , 255)&quot;&gt;读接口2&lt;/span&gt;" style="shape=step;perimeter=stepPerimeter;whiteSpace=wrap;html=1;fixedSize=1;size=10;direction=south;fillColor=#12AAB5;strokeColor=none;rounded=0;fontStyle=1" vertex="1" parent="1">
          <mxGeometry x="356" y="479" width="70" height="80" as="geometry" />
        </mxCell>
        <mxCell id="WDI8N6Us3rYaBqZzMLqW-39" value="" style="fillColor=#36B37E;strokeColor=none;rounded=1;arcSize=50;fontColor=#000033;" vertex="1" parent="1">
          <mxGeometry x="646" y="269" width="40" height="20" as="geometry" />
        </mxCell>
        <mxCell id="WDI8N6Us3rYaBqZzMLqW-40" value="" style="shape=ellipse;strokeColor=none;fillColor=#9AD9BE" vertex="1" parent="WDI8N6Us3rYaBqZzMLqW-39">
          <mxGeometry x="1" y="0.5" width="16" height="16" relative="1" as="geometry">
            <mxPoint x="-18" y="-8" as="offset" />
          </mxGeometry>
        </mxCell>
        <mxCell id="WDI8N6Us3rYaBqZzMLqW-41" value="" style="html=1;shadow=0;dashed=0;shape=mxgraph.atlassian.check;strokeColor=#9AD9BE;strokeWidth=2" vertex="1" parent="WDI8N6Us3rYaBqZzMLqW-39">
          <mxGeometry y="0.5" width="10" height="8" relative="1" as="geometry">
            <mxPoint x="6" y="-5" as="offset" />
          </mxGeometry>
        </mxCell>
        <mxCell id="WDI8N6Us3rYaBqZzMLqW-51" value="" style="fillColor=#36B37E;strokeColor=none;rounded=1;arcSize=50;fontColor=#000033;" vertex="1" parent="1">
          <mxGeometry x="646" y="430" width="40" height="20" as="geometry" />
        </mxCell>
        <mxCell id="WDI8N6Us3rYaBqZzMLqW-52" value="" style="shape=ellipse;strokeColor=none;fillColor=#ffffff" vertex="1" parent="WDI8N6Us3rYaBqZzMLqW-51">
          <mxGeometry x="1" y="0.5" width="16" height="16" relative="1" as="geometry">
            <mxPoint x="-18" y="-8" as="offset" />
          </mxGeometry>
        </mxCell>
        <mxCell id="WDI8N6Us3rYaBqZzMLqW-53" value="" style="html=1;shadow=0;dashed=0;shape=mxgraph.atlassian.check;strokeColor=#ffffff;strokeWidth=2" vertex="1" parent="WDI8N6Us3rYaBqZzMLqW-51">
          <mxGeometry y="0.5" width="10" height="8" relative="1" as="geometry">
            <mxPoint x="6" y="-5" as="offset" />
          </mxGeometry>
        </mxCell>
        <mxCell id="WDI8N6Us3rYaBqZzMLqW-56" style="edgeStyle=orthogonalEdgeStyle;orthogonalLoop=1;jettySize=auto;html=1;fontColor=#000033;fillColor=#ffe6cc;strokeColor=#d79b00;rounded=0;jumpStyle=none;entryX=0;entryY=0.5;entryDx=0;entryDy=0;" edge="1" parent="1" source="WDI8N6Us3rYaBqZzMLqW-27">
          <mxGeometry relative="1" as="geometry">
            <mxPoint x="626" y="438.5" as="sourcePoint" />
            <mxPoint x="640" y="439" as="targetPoint" />
          </mxGeometry>
        </mxCell>
        <mxCell id="WDI8N6Us3rYaBqZzMLqW-57" value="异步读取并校验" style="edgeLabel;html=1;align=center;verticalAlign=middle;resizable=0;points=[];fontColor=#000033;fontStyle=1" vertex="1" connectable="0" parent="WDI8N6Us3rYaBqZzMLqW-56">
          <mxGeometry x="-0.23" y="-1" relative="1" as="geometry">
            <mxPoint x="38" y="-2" as="offset" />
          </mxGeometry>
        </mxCell>
        <mxCell id="WDI8N6Us3rYaBqZzMLqW-58" value="" style="fillColor=#36B37E;strokeColor=none;rounded=1;arcSize=50;fontColor=#000033;" vertex="1" parent="1">
          <mxGeometry x="646" y="510" width="40" height="20" as="geometry" />
        </mxCell>
        <mxCell id="WDI8N6Us3rYaBqZzMLqW-59" value="" style="shape=ellipse;strokeColor=none;fillColor=#9AD9BE" vertex="1" parent="WDI8N6Us3rYaBqZzMLqW-58">
          <mxGeometry x="1" y="0.5" width="16" height="16" relative="1" as="geometry">
            <mxPoint x="-18" y="-8" as="offset" />
          </mxGeometry>
        </mxCell>
        <mxCell id="WDI8N6Us3rYaBqZzMLqW-60" value="" style="html=1;shadow=0;dashed=0;shape=mxgraph.atlassian.check;strokeColor=#9AD9BE;strokeWidth=2" vertex="1" parent="WDI8N6Us3rYaBqZzMLqW-58">
          <mxGeometry y="0.5" width="10" height="8" relative="1" as="geometry">
            <mxPoint x="6" y="-5" as="offset" />
          </mxGeometry>
        </mxCell>
        <mxCell id="WDI8N6Us3rYaBqZzMLqW-61" style="edgeStyle=orthogonalEdgeStyle;rounded=0;orthogonalLoop=1;jettySize=auto;html=1;fontColor=#000033;fillColor=#ffe6cc;strokeColor=#d79b00;entryX=0;entryY=0.5;entryDx=0;entryDy=0;" edge="1" parent="1" source="WDI8N6Us3rYaBqZzMLqW-28">
          <mxGeometry relative="1" as="geometry">
            <mxPoint x="626" y="518.5" as="sourcePoint" />
            <mxPoint x="640" y="519" as="targetPoint" />
          </mxGeometry>
        </mxCell>
        <mxCell id="WDI8N6Us3rYaBqZzMLqW-62" value="同步读取" style="edgeLabel;html=1;align=center;verticalAlign=middle;resizable=0;points=[];fontColor=#000033;fontStyle=1" vertex="1" connectable="0" parent="WDI8N6Us3rYaBqZzMLqW-61">
          <mxGeometry x="-0.23" y="-1" relative="1" as="geometry">
            <mxPoint x="28" y="-2" as="offset" />
          </mxGeometry>
        </mxCell>
        <mxCell id="WDI8N6Us3rYaBqZzMLqW-65" value="&lt;span style=&quot;font-size: 18px&quot;&gt;分拣老系统&lt;/span&gt;" style="fillColor=none;strokeColor=none;html=1;fontSize=11;fontStyle=0;align=left;fontColor=#596780;fontStyle=1;fontSize=11" vertex="1" parent="1">
          <mxGeometry x="745" y="109" width="100" height="40" as="geometry" />
        </mxCell>
        <mxCell id="WDI8N6Us3rYaBqZzMLqW-66" value="&lt;span style=&quot;font-size: 18px&quot;&gt;分拣新系统&lt;/span&gt;" style="fillColor=none;strokeColor=none;html=1;fontSize=11;fontStyle=0;align=left;fontColor=#596780;fontStyle=1;fontSize=11" vertex="1" parent="1">
          <mxGeometry x="241" y="109" width="100" height="40" as="geometry" />
        </mxCell>
        <mxCell id="WDI8N6Us3rYaBqZzMLqW-67" value="新仓库DB" style="shape=cylinder;whiteSpace=wrap;html=1;boundedLbl=1;backgroundOutline=1;rounded=0;fontStyle=1;strokeColor=none;fillColor=#10739E;fontColor=#FFFFFF;verticalAlign=top;" vertex="1" parent="1">
          <mxGeometry x="156" y="159" width="60" height="80" as="geometry" />
        </mxCell>
        <mxCell id="WDI8N6Us3rYaBqZzMLqW-69" value="&lt;span style=&quot;color: rgb(255 , 255 , 255)&quot;&gt;新仓库DB&lt;/span&gt;" style="shape=cylinder;whiteSpace=wrap;html=1;boundedLbl=1;backgroundOutline=1;rounded=0;fontStyle=1;strokeColor=none;fillColor=#F2931E;verticalAlign=top;" vertex="1" parent="1">
          <mxGeometry x="156" y="239" width="60" height="80" as="geometry" />
        </mxCell>
        <mxCell id="WDI8N6Us3rYaBqZzMLqW-82" style="edgeStyle=orthogonalEdgeStyle;rounded=0;orthogonalLoop=1;jettySize=auto;html=1;entryX=0.5;entryY=1;entryDx=0;entryDy=0;fontColor=#000033;fillColor=#ffe6cc;strokeColor=#d79b00;" edge="1" parent="1" source="WDI8N6Us3rYaBqZzMLqW-72" target="WDI8N6Us3rYaBqZzMLqW-27">
          <mxGeometry relative="1" as="geometry" />
        </mxCell>
        <mxCell id="WDI8N6Us3rYaBqZzMLqW-72" value="&lt;span style=&quot;color: rgb(255 , 255 , 255)&quot;&gt;新仓库DB&lt;/span&gt;" style="shape=cylinder;whiteSpace=wrap;html=1;boundedLbl=1;backgroundOutline=1;rounded=0;fontStyle=1;strokeColor=none;fillColor=#23445D;verticalAlign=top;" vertex="1" parent="1">
          <mxGeometry x="156" y="399" width="60" height="80" as="geometry" />
        </mxCell>
        <mxCell id="WDI8N6Us3rYaBqZzMLqW-75" value="&lt;span style=&quot;color: rgb(255 , 255 , 255)&quot;&gt;新仓库DB&lt;/span&gt;" style="shape=cylinder;whiteSpace=wrap;html=1;boundedLbl=1;backgroundOutline=1;rounded=0;fontStyle=1;strokeColor=none;fillColor=#12AAB5;verticalAlign=top;" vertex="1" parent="1">
          <mxGeometry x="156" y="479" width="60" height="80" as="geometry" />
        </mxCell>
        <mxCell id="WDI8N6Us3rYaBqZzMLqW-77" value="" style="fillColor=#36B37E;strokeColor=none;rounded=1;arcSize=50;fontColor=#000033;" vertex="1" parent="1">
          <mxGeometry x="96" y="54" width="40" height="20" as="geometry" />
        </mxCell>
        <mxCell id="WDI8N6Us3rYaBqZzMLqW-78" value="" style="shape=ellipse;strokeColor=none;fillColor=#ffffff" vertex="1" parent="WDI8N6Us3rYaBqZzMLqW-77">
          <mxGeometry x="1" y="0.5" width="16" height="16" relative="1" as="geometry">
            <mxPoint x="-18" y="-8" as="offset" />
          </mxGeometry>
        </mxCell>
        <mxCell id="WDI8N6Us3rYaBqZzMLqW-79" value="" style="html=1;shadow=0;dashed=0;shape=mxgraph.atlassian.check;strokeColor=#ffffff;strokeWidth=2" vertex="1" parent="WDI8N6Us3rYaBqZzMLqW-77">
          <mxGeometry y="0.5" width="10" height="8" relative="1" as="geometry">
            <mxPoint x="6" y="-5" as="offset" />
          </mxGeometry>
        </mxCell>
        <mxCell id="WDI8N6Us3rYaBqZzMLqW-80" value="仓库验证开关(每个仓库都需配置，默认打开)" style="text;html=1;align=center;verticalAlign=middle;resizable=0;points=[];autosize=1;fontColor=#000033;fontStyle=1" vertex="1" parent="1">
          <mxGeometry x="156" y="54" width="250" height="20" as="geometry" />
        </mxCell>
        <mxCell id="WDI8N6Us3rYaBqZzMLqW-86" value="&lt;b&gt;...&lt;/b&gt;" style="shape=cylinder;whiteSpace=wrap;html=1;boundedLbl=1;backgroundOutline=1;rounded=0;fontColor=#FFFFFF;strokeColor=none;fillColor=#AE4132;verticalAlign=top;" vertex="1" parent="1">
          <mxGeometry x="156" y="319" width="60" height="80" as="geometry" />
        </mxCell>
        <mxCell id="WDI8N6Us3rYaBqZzMLqW-88" value="" style="fillColor=#36B37E;strokeColor=none;rounded=1;arcSize=50;fontColor=#000033;" vertex="1" parent="1">
          <mxGeometry x="646" y="189" width="40" height="20" as="geometry" />
        </mxCell>
        <mxCell id="WDI8N6Us3rYaBqZzMLqW-89" value="" style="shape=ellipse;strokeColor=none;fillColor=#ffffff" vertex="1" parent="WDI8N6Us3rYaBqZzMLqW-88">
          <mxGeometry x="1" y="0.5" width="16" height="16" relative="1" as="geometry">
            <mxPoint x="-18" y="-8" as="offset" />
          </mxGeometry>
        </mxCell>
        <mxCell id="WDI8N6Us3rYaBqZzMLqW-90" value="" style="html=1;shadow=0;dashed=0;shape=mxgraph.atlassian.check;strokeColor=#ffffff;strokeWidth=2" vertex="1" parent="WDI8N6Us3rYaBqZzMLqW-88">
          <mxGeometry y="0.5" width="10" height="8" relative="1" as="geometry">
            <mxPoint x="6" y="-5" as="offset" />
          </mxGeometry>
        </mxCell>
        <mxCell id="WDI8N6Us3rYaBqZzMLqW-91" value="老仓库DB" style="shape=cylinder;whiteSpace=wrap;html=1;boundedLbl=1;backgroundOutline=1;rounded=0;fontStyle=1;strokeColor=none;fillColor=#10739E;verticalAlign=top;fontColor=#FFFFFF;" vertex="1" parent="1">
          <mxGeometry x="906" y="159" width="60" height="80" as="geometry" />
        </mxCell>
        <mxCell id="WDI8N6Us3rYaBqZzMLqW-94" value="&lt;span style=&quot;color: rgb(255 , 255 , 255)&quot;&gt;老仓库DB&lt;/span&gt;" style="shape=cylinder;whiteSpace=wrap;html=1;boundedLbl=1;backgroundOutline=1;rounded=0;fontStyle=1;strokeColor=none;fillColor=#F2931E;verticalAlign=top;" vertex="1" parent="1">
          <mxGeometry x="906" y="239" width="60" height="80" as="geometry" />
        </mxCell>
        <mxCell id="WDI8N6Us3rYaBqZzMLqW-97" value="&lt;b&gt;...&lt;/b&gt;" style="shape=cylinder;whiteSpace=wrap;html=1;boundedLbl=1;backgroundOutline=1;rounded=0;fontColor=#FFFFFF;strokeColor=none;fillColor=#AE4132;verticalAlign=top;" vertex="1" parent="1">
          <mxGeometry x="906" y="319" width="60" height="80" as="geometry" />
        </mxCell>
        <mxCell id="WDI8N6Us3rYaBqZzMLqW-99" value="&lt;span style=&quot;color: rgb(255 , 255 , 255)&quot;&gt;老仓库DB&lt;/span&gt;" style="shape=cylinder;whiteSpace=wrap;html=1;boundedLbl=1;backgroundOutline=1;rounded=0;fontStyle=1;strokeColor=none;fillColor=#23445D;verticalAlign=top;" vertex="1" parent="1">
          <mxGeometry x="906" y="399" width="60" height="80" as="geometry" />
        </mxCell>
        <mxCell id="WDI8N6Us3rYaBqZzMLqW-102" value="&lt;span style=&quot;color: rgb(255 , 255 , 255)&quot;&gt;老仓库DB&lt;/span&gt;" style="shape=cylinder;whiteSpace=wrap;html=1;boundedLbl=1;backgroundOutline=1;rounded=0;fontStyle=1;strokeColor=none;fillColor=#12AAB5;verticalAlign=top;" vertex="1" parent="1">
          <mxGeometry x="906" y="479" width="60" height="80" as="geometry" />
        </mxCell>
        <mxCell id="WDI8N6Us3rYaBqZzMLqW-107" value="" style="shape=umlDestroy;whiteSpace=wrap;html=1;strokeWidth=3;fillColor=#ffe6cc;strokeColor=#d79b00;" vertex="1" parent="1">
          <mxGeometry x="837" y="514" width="10" height="10" as="geometry" />
        </mxCell>
        <mxCell id="WDI8N6Us3rYaBqZzMLqW-109" value="&lt;b&gt;&lt;font color=&quot;#000033&quot;&gt;新系统部署OK后，需要同步一下老数据库的数据&lt;/font&gt;&lt;/b&gt;" style="text;html=1;align=center;verticalAlign=middle;resizable=0;points=[];autosize=1;fontColor=#FFFFFF;" vertex="1" parent="1">
          <mxGeometry x="96" y="634" width="270" height="20" as="geometry" />
        </mxCell>
        <mxCell id="WDI8N6Us3rYaBqZzMLqW-118" value="" style="edgeStyle=orthogonalEdgeStyle;rounded=0;jumpStyle=none;orthogonalLoop=1;jettySize=auto;html=1;fontColor=#000033;" edge="1" parent="1" source="WDI8N6Us3rYaBqZzMLqW-110" target="WDI8N6Us3rYaBqZzMLqW-117">
          <mxGeometry relative="1" as="geometry" />
        </mxCell>
        <mxCell id="WDI8N6Us3rYaBqZzMLqW-110" value="新分拣系统" style="shape=ext;rounded=1;html=1;whiteSpace=wrap;fillColor=#97D077;fontColor=#FFFFFF;strokeColor=none;" vertex="1" parent="1">
          <mxGeometry x="364" y="935" width="120" height="80" as="geometry" />
        </mxCell>
        <mxCell id="WDI8N6Us3rYaBqZzMLqW-111" value="&lt;b&gt;老分拣系统&lt;/b&gt;" style="shape=ext;rounded=1;html=1;whiteSpace=wrap;fillColor=#ffe6cc;strokeColor=none;fontColor=#FFFFFF;" vertex="1" parent="1">
          <mxGeometry x="634" y="935" width="120" height="80" as="geometry" />
        </mxCell>
        <mxCell id="WDI8N6Us3rYaBqZzMLqW-113" style="edgeStyle=orthogonalEdgeStyle;rounded=0;jumpStyle=none;orthogonalLoop=1;jettySize=auto;html=1;fontColor=#FFFFFF;fontStyle=1" edge="1" parent="1" source="WDI8N6Us3rYaBqZzMLqW-112" target="WDI8N6Us3rYaBqZzMLqW-111">
          <mxGeometry relative="1" as="geometry" />
        </mxCell>
        <mxCell id="WDI8N6Us3rYaBqZzMLqW-114" value="仓库数据验证中，保持在线" style="edgeLabel;html=1;align=center;verticalAlign=middle;resizable=0;points=[];fontColor=#000033;fontStyle=1" vertex="1" connectable="0" parent="WDI8N6Us3rYaBqZzMLqW-113">
          <mxGeometry x="-0.3333" relative="1" as="geometry">
            <mxPoint x="27" y="50" as="offset" />
          </mxGeometry>
        </mxCell>
        <mxCell id="WDI8N6Us3rYaBqZzMLqW-115" style="edgeStyle=orthogonalEdgeStyle;rounded=0;jumpStyle=none;orthogonalLoop=1;jettySize=auto;html=1;fontColor=#000033;" edge="1" parent="1" source="WDI8N6Us3rYaBqZzMLqW-112" target="WDI8N6Us3rYaBqZzMLqW-110">
          <mxGeometry relative="1" as="geometry" />
        </mxCell>
        <mxCell id="WDI8N6Us3rYaBqZzMLqW-116" value="全部仓库验证完成后，切换CLB完成上线" style="edgeLabel;html=1;align=center;verticalAlign=middle;resizable=0;points=[];fontColor=#000033;fontStyle=1" vertex="1" connectable="0" parent="WDI8N6Us3rYaBqZzMLqW-115">
          <mxGeometry x="-0.2155" y="37" relative="1" as="geometry">
            <mxPoint x="-37" y="50" as="offset" />
          </mxGeometry>
        </mxCell>
        <mxCell id="WDI8N6Us3rYaBqZzMLqW-112" value="WebUI/App" style="shape=ext;rounded=1;html=1;whiteSpace=wrap;fontColor=#FFFFFF;strokeColor=none;fillColor=#3399FF;" vertex="1" parent="1">
          <mxGeometry x="495" y="785" width="120" height="80" as="geometry" />
        </mxCell>
        <mxCell id="WDI8N6Us3rYaBqZzMLqW-117" value="上线过程中，换回老仓库DB" style="ellipse;shape=cloud;whiteSpace=wrap;html=1;rounded=1;strokeColor=none;fillColor=#97D077;fontColor=#000033;fontStyle=1" vertex="1" parent="1">
          <mxGeometry x="180" y="835" width="120" height="80" as="geometry" />
        </mxCell>
        <mxCell id="WDI8N6Us3rYaBqZzMLqW-119" value="系统切换过程" style="text;html=1;align=center;verticalAlign=middle;resizable=0;points=[];autosize=1;fontColor=#000033;fontStyle=1;fontSize=24;" vertex="1" parent="1">
          <mxGeometry x="470" y="720" width="160" height="30" as="geometry" />
        </mxCell>
        <mxCell id="WDI8N6Us3rYaBqZzMLqW-120" value="功能验证过程" style="text;html=1;align=center;verticalAlign=middle;resizable=0;points=[];autosize=1;fontColor=#000033;fontStyle=1;fontSize=24;" vertex="1" parent="1">
          <mxGeometry x="460" y="10" width="160" height="30" as="geometry" />
        </mxCell>
      </root>
    </mxGraphModel>
  </diagram>
</mxfile>
